<svg aria-hidden="true" style="position: absolute; width: 0; height: 0; overflow: hidden;" version="1.1" xmlns="http://www.w3.org/2000/svg" xmlns:xlink="http://www.w3.org/1999/xlink">
  <defs>
    <symbol id="chevron-down" viewBox="0 0 32 32">
      <path stroke-linejoin="round" stroke-linecap="round" stroke-miterlimit="4" stroke-width="3.2" d="M8 12l8 8 8-8"></path>
    </symbol>
    <symbol id="heart" viewBox="0 0 32 32">
      <path stroke-linejoin="round" stroke-linecap="round" stroke-miterlimit="4" stroke-width="2.4615" d="M27.787 6.147c-0.681-0.681-1.49-1.222-2.38-1.591s-1.844-0.559-2.807-0.559c-0.963 0-1.917 0.19-2.807 0.559s-1.698 0.909-2.38 1.591l-1.413 1.413-1.413-1.413c-1.376-1.376-3.241-2.148-5.187-2.148s-3.811 0.773-5.187 2.148c-1.376 1.376-2.148 3.241-2.148 5.187s0.773 3.811 2.148 5.187l11.787 11.787 11.787-11.787c0.681-0.681 1.222-1.49 1.591-2.379s0.559-1.844 0.559-2.807-0.19-1.917-0.559-2.807c-0.369-0.89-0.909-1.699-1.591-2.38z"></path>
    </symbol>
    <symbol id="rating-star" viewBox="0 0 32 32">
      <path fill="#ffc531" style="fill: var(--color1, #ffc531); stroke: var(--color1, #ffc531)" stroke="#ffc531" stroke-linejoin="miter" stroke-linecap="butt" stroke-miterlimit="4" stroke-width="2.4" d="M12.4 9.394l3.6-6.822 3.6 6.822c0.318 0.603 0.899 1.025 1.571 1.141l7.601 1.315-5.376 5.532c-0.475 0.489-0.697 1.171-0.6 1.846l1.098 7.635-6.922-3.404c-0.612-0.301-1.329-0.301-1.941 0l-6.922 3.404 1.098-7.635c0.097-0.675-0.125-1.357-0.6-1.846l-5.376-5.532 7.601-1.315c0.672-0.116 1.252-0.538 1.571-1.141z"></path>
    </symbol>
    <symbol id="book-open" viewBox="0 0 32 32">
      <path stroke-linejoin="round" stroke-linecap="round" stroke-miterlimit="4" stroke-width="3" d="M29.333 8.267c0-1.493 0-2.24-0.291-2.811-0.256-0.502-0.664-0.91-1.165-1.165-0.571-0.291-1.317-0.291-2.811-0.291h-0.533c-2.987 0-4.48 0-5.621 0.581-1.004 0.511-1.819 1.327-2.331 2.331-0.581 1.141-0.581 2.634-0.581 5.621v15.467l0.133-0.2c0.926-1.389 1.389-2.084 2.001-2.587 0.542-0.445 1.166-0.779 1.837-0.983 0.758-0.23 1.593-0.23 3.262-0.23h1.833c1.494 0 2.24 0 2.811-0.291 0.502-0.256 0.91-0.664 1.165-1.165 0.291-0.57 0.291-1.317 0.291-2.811v-11.467z"></path>
      <path stroke-linejoin="round" stroke-linecap="round" stroke-miterlimit="4" stroke-width="3" d="M2.667 8.267c0-1.493 0-2.24 0.291-2.811 0.256-0.502 0.664-0.91 1.165-1.165 0.57-0.291 1.317-0.291 2.811-0.291h0.533c2.987 0 4.48 0 5.621 0.581 1.004 0.511 1.819 1.327 2.331 2.331 0.581 1.141 0.581 2.634 0.581 5.621v15.467l-0.133-0.2c-0.926-1.389-1.389-2.084-2.001-2.587-0.542-0.445-1.166-0.779-1.837-0.983-0.758-0.23-1.593-0.23-3.262-0.23h-1.833c-1.493 0-2.24 0-2.811-0.291-0.502-0.256-0.91-0.664-1.165-1.165-0.291-0.57-0.291-1.317-0.291-2.811v-11.467z"></path>
    </symbol>
    <symbol id="log-in" viewBox="0 0 32 32">
      <path fill="none" stroke="#9fb7ce" style="stroke: var(--color2, #9fb7ce)" stroke-linejoin="round" stroke-linecap="round" stroke-miterlimit="4" stroke-width="3.2" d="M20 4h1.6c2.24 0 3.36 0 4.216 0.436 0.753 0.383 1.364 0.995 1.748 1.748 0.436 0.856 0.436 1.976 0.436 4.216v11.2c0 2.24 0 3.36-0.436 4.216-0.384 0.753-0.995 1.364-1.748 1.748-0.856 0.436-1.976 0.436-4.216 0.436h-1.6"></path>
      <path fill="none" stroke="#9fb7ce" style="stroke: var(--color2, #9fb7ce)" stroke-linejoin="round" stroke-linecap="round" stroke-miterlimit="4" stroke-width="3.2" d="M13.333 9.333l6.667 6.667M20 16l-6.667 6.667M20 16h-16"></path>
    </symbol>
    <symbol id="ukraine-logo" viewBox="0 0 32 32">
      <path fill="#ffda44" style="fill: var(--color3, #ffda44)" d="M16 32c8.837 0 16-7.163 16-16s-7.163-16-16-16c-8.837 0-16 7.163-16 16s7.163 16 16 16z"></path>
      <path fill="#338af3" style="fill: var(--color4, #338af3)" d="M0 16c0-8.836 7.163-16 16-16s16 7.163 16 16z"></path>
    </symbol>
    <symbol id="iMac" viewBox="0 0 67 32">
      <path d="M1.313 0c-0.66 0-1.194 0.536-1.194 1.196v43.608c0 0.661 0.534 1.196 1.194 1.196h64.537c0.66 0 1.194-0.536 1.194-1.196v-43.607c0-0.661-0.534-1.196-1.194-1.196h-64.537z"></path>
      <path fill="#bfd6ea" d="M35.738 12.351c0 0.519-0.186 1.004-0.556 1.452-0.447 0.533-0.988 0.841-1.574 0.793-0.008-0.059-0.012-0.127-0.012-0.197v-0c0-0.498 0.213-1.032 0.59-1.468 0.188-0.221 0.428-0.404 0.719-0.551 0.29-0.144 0.564-0.224 0.822-0.238 0.003 0.031 0.006 0.062 0.008 0.092 0.002 0.039 0.003 0.077 0.003 0.115z"></path>
      <path fill="#bfd6ea" d="M37.7 20.231c-0.163 0.385-0.346 0.714-0.559 1.022l0.012-0.019c-0.287 0.418-0.523 0.708-0.704 0.869-0.281 0.264-0.583 0.399-0.905 0.407-0.232 0-0.511-0.067-0.836-0.204-0.326-0.136-0.626-0.203-0.9-0.203-0.287 0-0.596 0.067-0.926 0.203s-0.596 0.208-0.8 0.215c-0.309 0.013-0.618-0.126-0.926-0.418-0.196-0.175-0.442-0.475-0.737-0.899-0.316-0.454-0.576-0.98-0.779-1.579-0.218-0.648-0.327-1.275-0.327-1.882 0-0.695 0.147-1.295 0.442-1.798 0.232-0.404 0.54-0.722 0.926-0.956 0.357-0.222 0.788-0.355 1.251-0.361h0.002c0.246 0 0.568 0.078 0.969 0.23s0.656 0.231 0.768 0.231c0.084 0 0.369-0.091 0.852-0.272 0.457-0.168 0.842-0.237 1.158-0.21 0.856 0.070 1.499 0.415 1.926 1.035-0.765 0.473-1.144 1.136-1.136 1.986 0.007 0.662 0.242 1.213 0.705 1.651 0.198 0.194 0.432 0.353 0.69 0.466l0.015 0.006c-0.072 0.216-0.133 0.375-0.199 0.532l0.019-0.051z"></path>
    </symbol>
  </defs>
</svg>
